<svg xmlns="http://www.w3.org/2000/svg" xmlns:xlink="http://www.w3.org/1999/xlink" width="500" zoomAndPan="magnify" viewBox="0 0 375 374.999991" height="500" preserveAspectRatio="xMidYMid meet" version="1.0"><defs><g/><clipPath id="c409e29369"><path d="M 121.816406 85.777344 L 253.015625 85.777344 L 253.015625 208.027344 L 121.816406 208.027344 Z M 121.816406 85.777344 " clip-rule="nonzero"/></clipPath></defs><g fill="#171209" fill-opacity="1"><g transform="translate(53.001304, 258.032503)"><g><path d="M 12.703125 -23.9375 C 14.671875 -23.9375 16.363281 -23.625 17.78125 -23 C 19.195312 -22.375 20.359375 -21.507812 21.265625 -20.40625 C 22.179688 -19.300781 22.859375 -18.03125 23.296875 -16.59375 C 23.742188 -15.15625 23.96875 -13.632812 23.96875 -12.03125 C 23.96875 -10.394531 23.742188 -8.847656 23.296875 -7.390625 C 22.859375 -5.941406 22.179688 -4.664062 21.265625 -3.5625 C 20.359375 -2.457031 19.195312 -1.585938 17.78125 -0.953125 C 16.363281 -0.316406 14.671875 0 12.703125 0 L 2.34375 0 L 2.34375 -23.9375 Z M 11.984375 -2.984375 C 14.960938 -2.984375 17.054688 -3.742188 18.265625 -5.265625 C 19.484375 -6.796875 20.09375 -9.050781 20.09375 -12.03125 C 20.09375 -15.03125 19.484375 -17.265625 18.265625 -18.734375 C 17.054688 -20.210938 14.960938 -20.953125 11.984375 -20.953125 L 6.046875 -20.953125 L 6.046875 -2.984375 Z M 11.984375 -2.984375 "/></g></g></g><g fill="#171209" fill-opacity="1"><g transform="translate(89.388447, 258.032503)"><g><path d="M 15.84375 -20.953125 L 10.9375 -20.953125 L 10.9375 -2.984375 L 15.84375 -2.984375 L 15.84375 0 L 2.34375 0 L 2.34375 -2.984375 L 7.234375 -2.984375 L 7.234375 -20.953125 L 2.34375 -20.953125 L 2.34375 -23.9375 L 15.84375 -23.9375 Z M 15.84375 -20.953125 "/></g></g></g><g fill="#171209" fill-opacity="1"><g transform="translate(118.362005, 258.032503)"><g><path d="M 20.84375 0 L 18.71875 -5.6875 L 7.125 -5.6875 L 5 0 L 1.265625 0 L 10.15625 -23.9375 L 15.734375 -23.9375 L 24.625 0 Z M 8.25 -8.671875 L 17.609375 -8.671875 L 12.921875 -21.3125 Z M 8.25 -8.671875 "/></g></g></g><g fill="#171209" fill-opacity="1"><g transform="translate(154.929085, 258.032503)"><g><path d="M 1.734375 -8.03125 L 5.328125 -8.03125 C 5.378906 -6.207031 5.957031 -4.796875 7.0625 -3.796875 C 8.164062 -2.796875 9.890625 -2.296875 12.234375 -2.296875 C 13.847656 -2.296875 15.085938 -2.46875 15.953125 -2.8125 C 16.816406 -3.164062 17.410156 -3.648438 17.734375 -4.265625 C 18.054688 -4.878906 18.21875 -5.59375 18.21875 -6.40625 C 18.21875 -8.59375 16.875 -9.878906 14.1875 -10.265625 L 8.640625 -11.046875 C 4.515625 -11.628906 2.453125 -13.78125 2.453125 -17.5 C 2.453125 -18.84375 2.785156 -20.046875 3.453125 -21.109375 C 4.128906 -22.179688 5.15625 -23.03125 6.53125 -23.65625 C 7.914062 -24.28125 9.675781 -24.59375 11.8125 -24.59375 C 14.0625 -24.59375 15.894531 -24.25 17.3125 -23.5625 C 18.726562 -22.875 19.789062 -21.953125 20.5 -20.796875 C 21.207031 -19.648438 21.609375 -18.359375 21.703125 -16.921875 L 18.109375 -16.921875 C 17.941406 -18.359375 17.351562 -19.515625 16.34375 -20.390625 C 15.332031 -21.265625 13.804688 -21.703125 11.765625 -21.703125 C 9.828125 -21.703125 8.410156 -21.316406 7.515625 -20.546875 C 6.628906 -19.785156 6.1875 -18.804688 6.1875 -17.609375 C 6.1875 -16.710938 6.441406 -15.960938 6.953125 -15.359375 C 7.472656 -14.765625 8.285156 -14.382812 9.390625 -14.21875 L 15.265625 -13.359375 C 17.347656 -13.046875 18.984375 -12.382812 20.171875 -11.375 C 21.359375 -10.363281 21.953125 -8.863281 21.953125 -6.875 C 21.953125 -4.519531 21.191406 -2.6875 19.671875 -1.375 C 18.148438 -0.0703125 15.671875 0.578125 12.234375 0.578125 C 9.617188 0.578125 7.539062 0.175781 6 -0.625 C 4.46875 -1.4375 3.375 -2.5 2.71875 -3.8125 C 2.0625 -5.132812 1.734375 -6.539062 1.734375 -8.03125 Z M 1.734375 -8.03125 "/></g></g></g><g fill="#171209" fill-opacity="1"><g transform="translate(189.480822, 258.032503)"><g><path d="M 13.640625 -23.9375 C 15.421875 -23.9375 16.851562 -23.597656 17.9375 -22.921875 C 19.03125 -22.253906 19.828125 -21.367188 20.328125 -20.265625 C 20.835938 -19.160156 21.09375 -17.972656 21.09375 -16.703125 C 21.09375 -15.410156 20.835938 -14.210938 20.328125 -13.109375 C 19.828125 -12.003906 19.03125 -11.113281 17.9375 -10.4375 C 16.851562 -9.769531 15.421875 -9.4375 13.640625 -9.4375 L 6.078125 -9.4375 L 6.078125 0 L 2.34375 0 L 2.34375 -23.9375 Z M 12.75 -12.421875 C 14.445312 -12.421875 15.613281 -12.828125 16.25 -13.640625 C 16.882812 -14.460938 17.203125 -15.484375 17.203125 -16.703125 C 17.203125 -17.929688 16.882812 -18.945312 16.25 -19.75 C 15.613281 -20.550781 14.445312 -20.953125 12.75 -20.953125 L 6.078125 -20.953125 L 6.078125 -12.421875 Z M 12.75 -12.421875 "/></g></g></g><g fill="#171209" fill-opacity="1"><g transform="translate(222.808956, 258.032503)"><g><path d="M 14.109375 0.609375 C 11.253906 0.609375 8.929688 0.0507812 7.140625 -1.0625 C 5.359375 -2.175781 4.050781 -3.6875 3.21875 -5.59375 C 2.394531 -7.5 1.984375 -9.628906 1.984375 -11.984375 C 1.984375 -14.316406 2.394531 -16.429688 3.21875 -18.328125 C 4.050781 -20.222656 5.359375 -21.738281 7.140625 -22.875 C 8.929688 -24.019531 11.253906 -24.59375 14.109375 -24.59375 C 16.242188 -24.59375 18.078125 -24.257812 19.609375 -23.59375 C 21.148438 -22.9375 22.40625 -22.03125 23.375 -20.875 C 24.351562 -19.726562 25.078125 -18.390625 25.546875 -16.859375 C 26.015625 -15.335938 26.25 -13.710938 26.25 -11.984375 C 26.25 -9.660156 25.832031 -7.539062 25 -5.625 C 24.175781 -3.71875 22.867188 -2.203125 21.078125 -1.078125 C 19.285156 0.046875 16.960938 0.609375 14.109375 0.609375 Z M 5.875 -11.984375 C 5.875 -8.835938 6.515625 -6.460938 7.796875 -4.859375 C 9.078125 -3.253906 11.179688 -2.453125 14.109375 -2.453125 C 17.035156 -2.453125 19.140625 -3.253906 20.421875 -4.859375 C 21.710938 -6.460938 22.359375 -8.835938 22.359375 -11.984375 C 22.359375 -15.128906 21.710938 -17.503906 20.421875 -19.109375 C 19.140625 -20.722656 17.035156 -21.53125 14.109375 -21.53125 C 11.179688 -21.53125 9.078125 -20.722656 7.796875 -19.109375 C 6.515625 -17.503906 5.875 -15.128906 5.875 -11.984375 Z M 5.875 -11.984375 "/></g></g></g><g fill="#171209" fill-opacity="1"><g transform="translate(261.823236, 258.032503)"><g><path d="M 20.703125 -6.1875 L 20.703125 -3.921875 C 20.703125 -2.960938 20.757812 -2.148438 20.875 -1.484375 C 21 -0.828125 21.109375 -0.332031 21.203125 0 L 17.5625 0 C 17.46875 -0.3125 17.363281 -0.78125 17.25 -1.40625 C 17.144531 -2.03125 17.09375 -2.820312 17.09375 -3.78125 L 17.09375 -5.65625 C 17.09375 -7.382812 16.648438 -8.601562 15.765625 -9.3125 C 14.878906 -10.019531 13.65625 -10.375 12.09375 -10.375 L 6.046875 -10.375 L 6.046875 0 L 2.34375 0 L 2.34375 -23.9375 L 13.78125 -23.9375 C 16.28125 -23.9375 18.179688 -23.351562 19.484375 -22.1875 C 20.796875 -21.03125 21.453125 -19.453125 21.453125 -17.453125 C 21.453125 -15.828125 21.007812 -14.488281 20.125 -13.4375 C 19.238281 -12.394531 18.125 -11.707031 16.78125 -11.375 C 17.59375 -11.113281 18.285156 -10.796875 18.859375 -10.421875 C 19.441406 -10.046875 19.894531 -9.53125 20.21875 -8.875 C 20.539062 -8.21875 20.703125 -7.320312 20.703125 -6.1875 Z M 13.53125 -13.109375 C 15.070312 -13.109375 16.128906 -13.472656 16.703125 -14.203125 C 17.273438 -14.929688 17.5625 -15.929688 17.5625 -17.203125 C 17.5625 -18.378906 17.234375 -19.296875 16.578125 -19.953125 C 15.921875 -20.617188 14.859375 -20.953125 13.390625 -20.953125 L 6.046875 -20.953125 L 6.046875 -13.109375 Z M 13.53125 -13.109375 "/></g></g></g><g fill="#171209" fill-opacity="1"><g transform="translate(296.231017, 258.032503)"><g><path d="M 20.84375 0 L 18.71875 -5.6875 L 7.125 -5.6875 L 5 0 L 1.265625 0 L 10.15625 -23.9375 L 15.734375 -23.9375 L 24.625 0 Z M 8.25 -8.671875 L 17.609375 -8.671875 L 12.921875 -21.3125 Z M 8.25 -8.671875 "/></g></g></g><g fill="#a88d52" fill-opacity="1"><g transform="translate(127.917075, 284.679123)"><g><path d="M 11.84375 -9.65625 L 11.84375 0 L 10.34375 0 L 10.34375 -8.5 L 7.375 0 L 5.40625 0 L 2.4375 -8.5 L 2.4375 0 L 0.9375 0 L 0.9375 -9.65625 L 3.546875 -9.65625 L 6.40625 -1.453125 L 9.265625 -9.65625 Z M 11.84375 -9.65625 "/></g></g></g><g fill="#a88d52" fill-opacity="1"><g transform="translate(152.333051, 284.679123)"><g><path d="M 8.40625 0 L 7.5625 -2.296875 L 2.875 -2.296875 L 2.015625 0 L 0.515625 0 L 4.09375 -9.65625 L 6.34375 -9.65625 L 9.9375 0 Z M 3.328125 -3.5 L 7.109375 -3.5 L 5.21875 -8.609375 Z M 3.328125 -3.5 "/></g></g></g><g fill="#a88d52" fill-opacity="1"><g transform="translate(174.365888, 284.679123)"><g><path d="M 8.359375 -2.5 L 8.359375 -1.578125 C 8.359375 -1.191406 8.378906 -0.863281 8.421875 -0.59375 C 8.472656 -0.332031 8.519531 -0.132812 8.5625 0 L 7.09375 0 C 7.050781 -0.125 7.007812 -0.3125 6.96875 -0.5625 C 6.925781 -0.8125 6.90625 -1.132812 6.90625 -1.53125 L 6.90625 -2.28125 C 6.90625 -2.976562 6.722656 -3.46875 6.359375 -3.75 C 6.003906 -4.039062 5.507812 -4.1875 4.875 -4.1875 L 2.4375 -4.1875 L 2.4375 0 L 0.9375 0 L 0.9375 -9.65625 L 5.5625 -9.65625 C 6.570312 -9.65625 7.335938 -9.421875 7.859375 -8.953125 C 8.390625 -8.484375 8.65625 -7.847656 8.65625 -7.046875 C 8.65625 -6.390625 8.472656 -5.847656 8.109375 -5.421875 C 7.753906 -5.003906 7.304688 -4.726562 6.765625 -4.59375 C 7.097656 -4.488281 7.378906 -4.359375 7.609375 -4.203125 C 7.847656 -4.054688 8.03125 -3.847656 8.15625 -3.578125 C 8.289062 -3.316406 8.359375 -2.957031 8.359375 -2.5 Z M 5.46875 -5.296875 C 6.082031 -5.296875 6.503906 -5.441406 6.734375 -5.734375 C 6.972656 -6.023438 7.09375 -6.429688 7.09375 -6.953125 C 7.09375 -7.421875 6.957031 -7.785156 6.6875 -8.046875 C 6.425781 -8.316406 6 -8.453125 5.40625 -8.453125 L 2.4375 -8.453125 L 2.4375 -5.296875 Z M 5.46875 -5.296875 "/></g></g></g><g fill="#a88d52" fill-opacity="1"><g transform="translate(195.526842, 284.679123)"><g><path d="M 5.21875 -5.59375 L 9.265625 -0.078125 L 9.265625 0 L 7.453125 0 L 4.21875 -4.515625 L 2.4375 -2.640625 L 2.4375 0 L 0.9375 0 L 0.9375 -9.65625 L 2.4375 -9.65625 L 2.4375 -4.546875 L 7.09375 -9.65625 L 9.046875 -9.65625 Z M 5.21875 -5.59375 "/></g></g></g><g fill="#a88d52" fill-opacity="1"><g transform="translate(217.08015, 284.679123)"><g><path d="M 2.4375 -1.203125 L 8.28125 -1.203125 L 8.28125 0 L 0.9375 0 L 0.9375 -9.65625 L 8.234375 -9.65625 L 8.234375 -8.453125 L 2.4375 -8.453125 L 2.4375 -5.53125 L 7.796875 -5.53125 L 7.796875 -4.359375 L 2.4375 -4.359375 Z M 2.4375 -1.203125 "/></g></g></g><g fill="#a88d52" fill-opacity="1"><g transform="translate(237.863295, 284.679123)"><g><path d="M 8.703125 -9.65625 L 8.703125 -8.453125 L 5.359375 -8.453125 L 5.359375 0 L 3.859375 0 L 3.859375 -8.453125 L 0.515625 -8.453125 L 0.515625 -9.65625 Z M 8.703125 -9.65625 "/></g></g></g><g clip-path="url(#c409e29369)"><path fill="#ac9259" d="M 187.480469 88.78125 C 183.648438 88.78125 180.234375 90.355469 177.820312 92.769531 C 175.402344 95.183594 173.828125 98.59375 173.828125 102.292969 C 173.828125 103.292969 173.960938 104.132812 174.117188 105.128906 C 174.539062 104.550781 175.117188 104 175.535156 103.421875 C 177.109375 101.847656 178.949219 100.71875 181.074219 99.878906 C 182.914062 99.015625 185.199219 98.59375 187.480469 98.59375 C 189.765625 98.59375 191.890625 99.015625 193.886719 99.878906 C 195.882812 100.746094 197.722656 101.875 199.296875 103.421875 C 199.875 104 200.292969 104.550781 200.714844 105.128906 C 200.84375 104.261719 201.003906 103.292969 201.003906 102.292969 C 201.003906 98.59375 199.425781 95.183594 197.011719 92.769531 C 194.597656 90.355469 191.183594 88.78125 187.480469 88.78125 Z M 202.839844 185 L 202.839844 185.132812 C 203.707031 187.128906 204.128906 189.253906 204.128906 191.378906 C 204.128906 195.917969 202.132812 200.039062 199.140625 203.1875 C 196.144531 206.175781 192.023438 208.015625 187.480469 208.015625 C 182.78125 208.015625 178.660156 206.175781 175.667969 203.1875 C 172.671875 200.0625 170.835938 195.945312 170.835938 191.378906 C 170.835938 189.253906 171.253906 187.101562 171.964844 185.132812 L 171.964844 185 L 172.097656 185 C 172.097656 184.871094 172.226562 184.582031 172.226562 184.425781 C 173.226562 182.300781 174.800781 180.304688 176.507812 178.730469 C 177.636719 177.863281 181.050781 174.453125 185.328125 170.332031 C 176.664062 161.675781 165.976562 150.863281 164.847656 149.578125 C 164.429688 149.289062 162.722656 148.449219 160.308594 148.292969 C 159.886719 148.292969 159.441406 148.292969 159.019531 148.292969 C 153.480469 148.710938 144.949219 153.121094 136.703125 173.585938 C 141.953125 173.300781 155.476562 171.171875 161.460938 157.527344 L 164.167969 158.816406 C 155.898438 177.890625 134.417969 176.632812 134.417969 176.632812 L 132.292969 176.632812 L 133 174.636719 C 135.574219 167.945312 138.253906 162.699219 140.824219 158.710938 C 137.414062 157.582031 134.289062 156.136719 131.425781 154.433594 C 128.144531 152.597656 125.179688 150.3125 122.761719 147.898438 L 121.765625 146.902344 L 122.761719 145.773438 C 125.179688 143.359375 128.171875 141.234375 131.425781 139.238281 C 134.261719 137.664062 137.414062 136.25 140.824219 134.964844 C 138.253906 130.972656 135.574219 125.726562 133 119.035156 L 132.292969 117.042969 L 134.417969 117.042969 C 134.417969 117.042969 155.898438 115.914062 164.140625 134.964844 L 161.4375 136.089844 C 155.449219 122.445312 141.953125 120.320312 136.675781 120.03125 C 144.921875 140.5 153.453125 145.039062 158.996094 145.328125 C 159.414062 145.328125 159.859375 145.328125 160.28125 145.328125 C 162.695312 145.195312 164.402344 144.332031 164.824219 144.042969 C 165.953125 142.757812 176.636719 132.101562 185.300781 123.445312 C 181.023438 119.167969 177.609375 115.753906 176.480469 114.914062 C 174.773438 113.339844 173.199219 111.375 172.199219 109.222656 C 172.199219 109.089844 172.070312 108.800781 172.070312 108.644531 L 171.9375 108.644531 C 171.230469 106.652344 170.808594 104.523438 170.808594 102.242188 C 170.808594 97.703125 172.648438 93.582031 175.640625 90.59375 C 178.632812 87.601562 182.78125 85.789062 187.480469 85.789062 C 192.023438 85.789062 196.144531 87.625 199.140625 90.617188 C 202.132812 93.609375 204.128906 97.730469 204.128906 102.269531 C 204.128906 104.550781 203.707031 106.675781 202.839844 108.671875 C 202.710938 108.800781 202.550781 109.089844 202.550781 109.25 C 201.554688 111.375 200.136719 113.367188 198.273438 114.941406 C 197.273438 115.808594 193.730469 119.21875 189.609375 123.46875 C 198.140625 132.128906 208.800781 142.808594 209.957031 144.066406 C 210.535156 144.355469 212.082031 145.195312 214.5 145.355469 C 214.917969 145.355469 215.363281 145.355469 215.785156 145.355469 C 221.324219 145.066406 229.859375 140.527344 238.101562 120.058594 C 232.851562 120.347656 219.328125 122.472656 213.34375 136.117188 L 210.640625 134.988281 C 218.882812 115.9375 240.359375 117.066406 240.359375 117.066406 L 242.484375 117.066406 L 241.777344 119.0625 C 239.203125 125.753906 236.65625 131 233.953125 134.988281 C 237.367188 136.273438 240.492188 137.691406 243.351562 139.265625 C 246.765625 141.261719 249.601562 143.386719 252.015625 145.800781 L 253.015625 146.929688 L 252.015625 147.925781 C 249.601562 150.339844 246.765625 152.621094 243.351562 154.460938 C 240.515625 156.164062 237.367188 157.582031 233.953125 158.734375 C 236.65625 162.722656 239.203125 167.972656 241.777344 174.664062 L 242.484375 176.65625 L 240.359375 176.65625 C 240.359375 176.65625 218.882812 177.945312 210.640625 158.894531 L 213.34375 157.609375 C 219.328125 171.253906 232.824219 173.378906 238.101562 173.667969 C 229.859375 153.199219 221.324219 148.792969 215.785156 148.371094 C 215.363281 148.371094 214.917969 148.371094 214.5 148.371094 C 212.082031 148.503906 210.507812 149.367188 209.957031 149.65625 C 208.828125 150.941406 198.140625 161.726562 189.609375 170.414062 C 193.730469 174.53125 197.300781 177.945312 198.273438 178.808594 C 200.109375 180.382812 201.554688 182.351562 202.550781 184.503906 C 202.550781 184.582031 202.683594 184.871094 202.839844 185 Z M 200.714844 188.703125 C 200.292969 189.277344 199.847656 189.699219 199.296875 190.277344 C 197.722656 191.851562 195.882812 193.109375 193.886719 193.976562 C 191.890625 194.683594 189.765625 195.261719 187.480469 195.261719 C 185.199219 195.261719 182.9375 194.683594 181.074219 193.976562 C 178.949219 193.109375 177.085938 191.851562 175.535156 190.277344 C 175.117188 189.699219 174.539062 189.277344 174.117188 188.703125 C 173.988281 189.566406 173.828125 190.40625 173.828125 191.40625 C 173.828125 195.105469 175.402344 198.515625 177.820312 200.929688 C 180.234375 203.5 183.648438 204.917969 187.480469 204.917969 C 191.183594 204.917969 194.597656 203.5 197.011719 200.929688 C 199.425781 198.515625 201.003906 195.105469 201.003906 191.40625 C 200.976562 190.40625 200.84375 189.542969 200.714844 188.703125 Z M 175.378906 185 C 175.507812 185.421875 175.796875 185.710938 176.085938 186.128906 C 176.507812 186.839844 177.085938 187.546875 177.660156 188.125 C 178.949219 189.410156 180.496094 190.40625 182.203125 191.117188 C 183.78125 191.824219 185.484375 192.113281 187.457031 192.113281 C 189.292969 192.113281 191 191.824219 192.707031 191.117188 C 194.28125 190.40625 195.832031 189.410156 197.117188 188.125 C 197.695312 187.546875 198.246094 186.839844 198.824219 186.128906 C 198.957031 185.710938 199.242188 185.421875 199.402344 185 C 198.691406 183.585938 197.5625 182.167969 196.277344 181.011719 C 195.148438 180.148438 191.734375 176.738281 187.457031 172.484375 C 183.042969 176.761719 179.632812 180.171875 178.503906 181.011719 C 177.242188 182.167969 176.246094 183.585938 175.378906 185 Z M 175.378906 108.671875 C 176.246094 110.085938 177.214844 111.503906 178.503906 112.660156 C 179.632812 113.523438 183.042969 117.066406 187.457031 121.320312 C 191.734375 116.910156 195.148438 113.5 196.277344 112.660156 C 197.5625 111.53125 198.691406 110.085938 199.402344 108.671875 C 199.269531 108.25 198.980469 107.960938 198.824219 107.542969 C 198.246094 106.835938 197.695312 106.257812 197.117188 105.546875 C 195.832031 104.261719 194.28125 103.265625 192.707031 102.558594 C 191 101.980469 189.292969 101.558594 187.457031 101.558594 C 185.460938 101.558594 183.753906 101.980469 182.203125 102.558594 C 180.496094 103.265625 178.921875 104.261719 177.660156 105.546875 C 177.085938 106.257812 176.53125 106.835938 176.085938 107.542969 C 175.824219 107.960938 175.535156 108.25 175.378906 108.671875 Z M 187.480469 135.121094 C 190.605469 135.121094 193.597656 136.40625 195.726562 138.53125 C 197.851562 140.65625 199.140625 143.648438 199.140625 146.929688 C 199.140625 150.207031 197.851562 153.042969 195.726562 155.167969 C 193.597656 157.292969 190.605469 158.578125 187.480469 158.578125 C 184.199219 158.578125 181.234375 157.292969 179.078125 155.167969 C 176.953125 153.042969 175.667969 150.183594 175.667969 146.929688 C 175.667969 143.648438 176.953125 140.683594 179.078125 138.53125 C 181.207031 136.378906 184.199219 135.121094 187.480469 135.121094 Z M 193.597656 140.65625 C 192.023438 139.082031 189.898438 138.085938 187.480469 138.085938 C 185.066406 138.085938 182.78125 139.082031 181.234375 140.65625 C 179.683594 142.230469 178.660156 144.488281 178.660156 146.902344 C 178.660156 149.316406 179.65625 151.441406 181.234375 153.015625 C 182.808594 154.589844 185.066406 155.585938 187.480469 155.585938 C 189.898438 155.585938 192.023438 154.589844 193.597656 153.015625 C 195.175781 151.441406 196.171875 149.316406 196.171875 146.902344 C 196.144531 144.488281 195.148438 142.230469 193.597656 140.65625 Z M 142.664062 137.664062 C 139.121094 138.792969 135.835938 140.238281 133 141.941406 C 130.429688 143.359375 128.011719 145.066406 126.042969 146.929688 C 128.039062 148.632812 130.457031 150.339844 133 151.914062 C 135.835938 153.488281 139.121094 154.90625 142.664062 156.191406 C 146.207031 151.207031 149.777344 148.371094 153.035156 146.953125 C 149.777344 145.355469 146.234375 142.492188 142.664062 137.664062 Z M 232.273438 156.136719 C 235.6875 154.851562 238.96875 153.4375 241.804688 151.859375 C 244.507812 150.285156 246.792969 148.582031 248.761719 146.875 C 246.765625 145.039062 244.480469 143.332031 241.804688 141.890625 C 238.96875 140.183594 235.6875 138.769531 232.273438 137.613281 C 228.570312 142.441406 225.027344 145.300781 221.746094 146.847656 C 225.027344 148.34375 228.570312 151.179688 232.273438 156.136719 Z M 169.261719 172.933594 C 169.261719 175.058594 168.683594 177.472656 167.554688 179.753906 C 166.425781 181.878906 164.847656 184.03125 162.855469 185.867188 C 160.726562 187.703125 158.574219 189.148438 156.316406 189.988281 C 153.902344 190.984375 151.617188 191.40625 149.488281 191.117188 L 148.074219 190.984375 L 148.074219 189.699219 C 148.074219 187.574219 148.648438 185.160156 149.777344 182.875 C 150.90625 180.75 152.484375 178.597656 154.480469 176.761719 C 156.472656 174.925781 158.757812 173.484375 161.015625 172.644531 C 163.300781 171.644531 165.714844 171.226562 167.84375 171.515625 L 169.128906 171.644531 Z M 164.847656 178.335938 C 165.425781 177.050781 165.847656 175.765625 166.136719 174.507812 C 164.847656 174.507812 163.433594 174.925781 162.144531 175.503906 C 160.148438 176.210938 158.3125 177.339844 156.449219 179.046875 C 154.742188 180.621094 153.324219 182.457031 152.457031 184.292969 C 151.75 185.578125 151.328125 186.863281 151.171875 188.125 C 152.457031 188.125 153.742188 187.703125 155.160156 187.257812 C 157 186.394531 158.996094 185.265625 160.703125 183.558594 C 162.589844 182.011719 163.851562 180.171875 164.847656 178.335938 Z M 208.800781 174.480469 C 208.933594 175.765625 209.378906 177.050781 209.929688 178.3125 C 210.925781 180.148438 212.34375 182.011719 214.050781 183.558594 C 215.757812 185.265625 217.753906 186.394531 219.589844 187.257812 C 221.007812 187.679688 222.296875 188.125 223.582031 188.125 C 223.453125 186.839844 223.003906 185.554688 222.296875 184.292969 C 221.429688 182.457031 220.011719 180.59375 218.304688 179.046875 C 216.46875 177.339844 214.601562 176.210938 212.609375 175.503906 C 211.375 174.925781 209.957031 174.480469 208.800781 174.480469 Z M 207.25 179.753906 C 206.121094 177.472656 205.546875 175.058594 205.675781 172.933594 L 205.675781 171.644531 L 206.964844 171.515625 C 209.089844 171.226562 211.503906 171.644531 213.789062 172.644531 C 216.074219 173.507812 218.332031 174.925781 220.328125 176.761719 C 222.453125 178.597656 224.027344 180.75 225.027344 182.875 C 226.15625 185.160156 226.734375 187.574219 226.734375 189.699219 L 226.734375 190.984375 L 225.445312 191.117188 C 223.320312 191.40625 220.90625 190.984375 218.488281 189.988281 C 216.363281 189.121094 214.078125 187.703125 211.953125 185.867188 C 209.957031 184.003906 208.378906 181.878906 207.25 179.753906 Z M 166.003906 146.902344 C 166.425781 147.035156 166.582031 147.191406 166.714844 147.191406 L 166.84375 147.480469 C 166.976562 147.480469 178.371094 159 187.457031 168.078125 C 196.566406 158.972656 207.933594 147.480469 207.933594 147.480469 L 208.222656 147.191406 C 208.222656 147.191406 208.355469 147.058594 208.800781 146.902344 C 208.378906 146.613281 208.222656 146.480469 208.222656 146.480469 L 207.933594 146.351562 C 207.933594 146.21875 196.566406 134.699219 187.457031 125.59375 C 178.34375 134.699219 166.976562 146.195312 166.84375 146.351562 L 166.714844 146.480469 C 166.554688 146.480469 166.425781 146.640625 166.003906 146.902344 Z M 166.136719 119.191406 C 165.847656 118.066406 165.425781 116.621094 164.847656 115.363281 C 163.851562 113.523438 162.566406 111.820312 160.726562 110.113281 C 159.019531 108.539062 157.027344 107.28125 155.1875 106.570312 C 153.769531 105.996094 152.484375 105.707031 151.195312 105.574219 C 151.328125 106.859375 151.773438 108.144531 152.484375 109.40625 C 153.351562 111.242188 154.765625 113.105469 156.472656 114.8125 C 158.3125 116.386719 160.175781 117.511719 162.171875 118.351562 C 163.433594 118.90625 164.847656 119.191406 166.136719 119.191406 Z M 167.554688 114.078125 C 168.683594 116.359375 169.261719 118.617188 169.261719 120.765625 L 169.128906 122.183594 L 167.84375 122.183594 C 165.714844 122.472656 163.300781 122.054688 161.015625 121.1875 C 158.730469 120.191406 156.472656 118.773438 154.480469 116.910156 C 152.484375 115.046875 150.933594 112.921875 149.777344 110.796875 C 148.648438 108.511719 148.074219 106.257812 148.074219 104.105469 L 148.074219 102.6875 L 149.488281 102.558594 C 151.617188 102.425781 153.902344 102.6875 156.316406 103.683594 C 158.601562 104.550781 160.726562 105.96875 162.855469 107.804688 C 164.847656 109.800781 166.425781 111.792969 167.554688 114.078125 Z M 205.675781 120.765625 C 205.546875 118.640625 206.097656 116.359375 207.25 114.078125 C 208.378906 111.792969 209.957031 109.800781 211.953125 107.832031 C 214.078125 105.996094 216.363281 104.550781 218.488281 103.710938 C 220.90625 102.714844 223.320312 102.425781 225.445312 102.582031 L 226.734375 102.714844 L 226.734375 104.132812 C 226.734375 106.257812 226.15625 108.539062 225.027344 110.824219 C 224.027344 112.949219 222.453125 115.101562 220.328125 116.9375 C 218.332031 118.773438 216.046875 120.214844 213.789062 121.214844 C 211.503906 122.078125 209.089844 122.5 206.964844 122.210938 L 205.675781 122.210938 Z M 209.957031 115.363281 C 209.378906 116.648438 208.957031 118.066406 208.828125 119.191406 C 209.957031 119.191406 211.398438 118.90625 212.660156 118.328125 C 214.65625 117.460938 216.492188 116.332031 218.359375 114.785156 C 220.0625 113.078125 221.480469 111.242188 222.347656 109.378906 C 223.058594 108.09375 223.476562 106.808594 223.636719 105.546875 C 222.347656 105.679688 221.0625 105.96875 219.644531 106.546875 C 217.804688 107.253906 215.8125 108.539062 214.105469 110.085938 C 212.371094 111.792969 210.953125 113.5 209.957031 115.363281 Z M 209.957031 115.363281 " fill-opacity="1" fill-rule="nonzero"/></g></svg>